<?xml version="1.0" encoding="utf-8"?>
<!-- Generator: Adobe Illustrator 22.0.0, SVG Export Plug-In . SVG Version: 6.00 Build 0)  -->
<svg version="1.1" id="Capa_1" xmlns="http://www.w3.org/2000/svg" xmlns:xlink="http://www.w3.org/1999/xlink" x="0px" y="0px"
	 viewBox="0 0 651.3 651.3" style="enable-background:new 0 0 651.3 651.3;" xml:space="preserve">
<style type="text/css">
	.st0{opacity:0.1;fill:#588593;}
	.st1{fill:#6092A5;stroke:#588593;stroke-miterlimit:10;}
	.st2{fill:#588593;}
	.st3{fill:#4D7784;stroke:#426770;stroke-miterlimit:10;}
	.st4{fill:#36545B;}
	.st5{opacity:0.1;}
	.st6{fill:#6092A5;}
	.st7{fill:#FFFFFF;}
	.st8{fill:#4D7784;}
	.st9{fill:#FFFFFF;stroke:#939393;stroke-width:0.25;stroke-miterlimit:10;}
	.st10{fill:#283E42;}
</style>
<g>
	<ellipse class="st0" cx="317.8" cy="613.8" rx="295.4" ry="31.9"/>
	<path class="st1" d="M529.6,603.5c-2.2-4.8-7.1-8.8-12.5-12c-12.4-7.4-28.5-11.9-43.8-15.5c-7.7-1.8-15.5-3.3-23.4-4.6
		c-7.6-1.2-15.3-2.5-22.9-3.1c-4.2-0.3-8.3-0.5-12.6-0.6c-2.8-0.1-5.6,0.1-8.3,0.5c-0.4,0.1-0.8,0.2-1.2,0.3
		c-5-31-22.9-129.7-44.9-112.6c0,0-176.7-5.8-176.7-5.8c-3.7-0.1-13.7,28.9-15.2,33c-4.6,13.2-7.8,26.9-9.1,40.9
		c-0.8,8.4-1.9,26.3,0.6,40.6c-3,0.2-5.9,0.5-8.7,0.9c-5.5,0.8-10.9,2.2-16.2,3.6c-5.6,1.5-11.1,3.2-16.5,5.1
		c-10.7,3.9-22,8.8-30.5,16.5c-3.7,3.4-7,7.5-8.3,12.3c-1.4,5.1-0.4,10.3,2,14.9c1.7,3.2,3.6,7.3,7.2,8.6c6,2.1,14.2-0.2,20.4-0.7
		c8.1-0.7,16.3-1.4,24.4-2.1c10.2-0.9,20.5-1.7,30.7-2.6c5.3-0.4,10.5-1,15.8-1.3c5.8-0.4,5-5.4,5-10.1c-0.2-11.2-0.4-23.2-5.6-33.4
		c-0.4-0.8-0.8-1.5-1.3-2.3c-1.7-2.7-3.8-5-6.4-6.6c0-0.5,0-0.9,0-1.4c0-41.8,38.8-58.8,74.8-63.2c34.9-4.3,80.8-4.6,109.7,18.5
		c10.7,8.6,18.6,20.1,25.4,31.9c0.7,1.1,7.6,14.8,10.5,21.8c-0.9,0.9-1.8,1.8-2.5,2.7c-0.6,0.8-1.1,1.5-1.6,2.3
		c-6.5,10.4-5.9,22.4-5.4,33.5c0.1,1.8,0.2,3.6,0.5,5.4c0.2,1,0.2,3.9,1.8,4.3c0.2,0.1,0.4,0.1,0.7,0.1c6.2,0.2,12.4,0.4,18.6,0.6
		c18,0.6,36,1.1,54,1.7c18,0.6,36.4,2,54.3,1.7c8.6,0.3,12.4-3.8,15.6-8.8C530.9,613.8,531.9,608.5,529.6,603.5z"/>
	<path class="st2" d="M82.5,607.9c1.4-5.1,4.8-9.4,8.7-12.9c8.9-8,20.7-13.2,32-17.3c5.7-2.1,11.5-3.8,17.3-5.4
		c5.6-1.5,11.3-3,17-3.8c3-0.4,6.1-0.7,9.2-0.9c-2.7-15-1.4-33.8-0.7-42.7c1.3-14.7,4.7-29.1,9.5-43c1.2-3.5,8.2-23.8,13-31.6
		c-3.5-0.1-5.4-0.2-5.4-0.2c-3.7-0.1-13.7,28.9-15.2,33c-4.6,13.2-7.8,26.9-9.1,40.9c-0.8,8.4-1.9,26.3,0.6,40.6
		c-3,0.2-5.9,0.5-8.7,0.9c-5.5,0.8-10.9,2.2-16.2,3.6c-5.6,1.5-11.1,3.2-16.5,5.1c-10.7,3.9-22,8.8-30.5,16.5
		c-3.7,3.4-7,7.5-8.3,12.3c-1.4,5.1-0.4,10.3,2,14.9c0.8,1.6,1.8,3.5,2.9,5.1C82,618.3,81,613,82.5,607.9z"/>
	<path class="st1" d="M635.1,353.5c-1.8-45.4-149.7-168.6-149.7-168.6l-0.6,6c0,0-32.1,39-4.5,44.8c27.7,5.8,63.8,84.6,63.8,84.7
		c-0.6-1.3-13.2,12.2-14.1,14.2c-2.7,5.8-5.4,15.3,4.3,13.5c14.5-2.7,26.5-4.8,38.8,5.5c9.9,8.3,14.5,21.7,11.3,34.4
		c-1.4,5.7-8.6,12.3-5,17c14.9,19.3,26.9-22,28.3-30.1c-1.7,9.7-8.8,43.7,10.4,41.4C638.9,413.8,635.6,366.1,635.1,353.5z"/>
	<path class="st2" d="M608.9,377.7c-1.8,4.6-2.9,14.5-3.3,27c1.2,7.2,4.6,12.5,12.6,11.6c0.5-0.1,0.9-0.2,1.3-0.3
		C610.9,407.8,603.1,392.2,608.9,377.7z"/>
	<g>
		<path class="st2" d="M549.4,315.9c0-0.1-38.7-84.5-68.3-90.7c-6.3-1.3-9.6-4.2-11.1-7.9c-2.2,8.3-0.7,16,10.4,18.3
			c26.8,5.6,61.4,79.6,63.7,84.5C546.8,317.4,549.1,315.4,549.4,315.9z"/>
		<path class="st2" d="M587.2,406.5c-3.9-5,3.8-12.1,5.3-18.2c3.4-13.5-1.6-27.8-12.1-36.8c-13.1-11.1-26-8.8-41.5-5.9
			c-10.4,1.9-7.6-8.3-4.6-14.5c0.6-1.2,5.5-6.7,9.6-10.8c-2.1,0.7-12.9,12.4-13.8,14.2c-2.7,5.8-5.4,15.3,4.3,13.5
			c14.5-2.7,26.5-4.8,38.8,5.5c9.9,8.3,14.5,21.7,11.3,34.4c-1.4,5.7-8.6,12.3-5,17c3.7,4.8,7.3,5.8,10.5,4.5
			C589.1,408.7,588.1,407.8,587.2,406.5z"/>
	</g>
	<path class="st1" d="M31.1,515.9c-15.5-41,65.1-202.8,65.1-202.8l2.7,5.1c0,0,42.2,23.3,20.6,38.3c-21.6,14.9-23,97.9-23,97.9
		c0,0.3,21.9,7.6,23,15.3c1.4,9.8-31.9,11.4-35.9,20.9c-0.6,1.5-0.8,3.2-1,4.8c-1.1,10.5,0.4,22.2,5.9,31.9
		c5.1,9,17.7,18.3-0.7,19.7c-12,0.9-18.9-13.6-25.5-21.6c32.3,50.8-2.4,39.2-2.4,39.2S46.6,556.9,31.1,515.9z"/>
	<path class="st2" d="M39.4,512.7c-12.8-34,34.3-143.2,58.8-195.9l-2-3.8c0,0-80.6,161.8-65.1,202.8c15.5,41,28.9,48.6,28.9,48.6
		s5.3,1.8,9.9,0.9C65.7,562,53.3,549.4,39.4,512.7z"/>
	<path class="st2" d="M64.4,525.5c5.8,14.5,15,15.9,20,22.7c0.5-0.1,1.1-0.2,1.6-0.3c4.6-1.3,7.8-2.5,9.8-3.8
		C81.8,541.8,74.7,532.3,64.4,525.5z"/>
	<path class="st2" d="M100.8,481.1c6.9-2.3,14-4.4,17.2-7.4C111.3,475.9,104.6,478.1,100.8,481.1z"/>
	<g>
		<path class="st3" d="M447.2,157.9c-15.3-22.6-34.8-40.5-56.8-53.5c3.9-4.1,8.2-7.8,13.1-11.1c35.7-24.1,84.2-14.8,108.4,20.9
			c24.1,35.7,14.8,84.2-20.9,108.4c-4.9,3.3-10,5.9-15.2,8C471.8,205.3,462.5,180.5,447.2,157.9z"/>
		<path class="st4" d="M455.5,152.3c-10.3-15.2-23.4-27.2-38.2-36c2.6-2.7,5.5-5.3,8.8-7.5c24-16.2,56.6-9.9,72.8,14.1
			c16.2,24,9.9,56.6-14.1,72.8c-3.3,2.2-6.7,4-10.2,5.4C472.1,184.1,465.8,167.5,455.5,152.3z"/>
	</g>
	<g>
		<path class="st3" d="M104.2,283.6c-1.8-27.2,2.6-53.4,11.9-77.1c-5.6-0.9-11.3-1.1-17.1-0.8c-43,2.9-75.6,40.1-72.7,83.1
			c2.9,43,40.1,75.6,83.1,72.7c5.8-0.4,11.5-1.4,16.9-3C113.8,336.2,106,310.8,104.2,283.6z"/>
		<path class="st4" d="M97.5,281.2c-1.2-18.3,1.7-35.8,8-51.8c-3.7-0.6-7.6-0.8-11.5-0.5c-28.9,1.9-50.8,26.9-48.8,55.8
			c1.9,28.9,26.9,50.8,55.8,48.8c3.9-0.3,7.7-1,11.3-2C103.9,316.5,98.7,299.4,97.5,281.2z"/>
	</g>
	<g class="st5">
		<path class="st4" d="M104.2,283.6c-1.8-27.2,2.6-53.4,11.9-77.1c-5.6-0.9-11.3-1.1-17.1-0.8c-43,2.9-75.6,40.1-72.7,83.1
			c2.9,43,40.1,75.6,83.1,72.7c5.8-0.4,11.5-1.4,16.9-3C113.8,336.2,106,310.8,104.2,283.6z"/>
		<path class="st4" d="M97.5,281.2c-1.2-18.3,1.7-35.8,8-51.8c-3.7-0.6-7.6-0.8-11.5-0.5c-28.9,1.9-50.8,26.9-48.8,55.8
			c1.9,28.9,26.9,50.8,55.8,48.8c3.9-0.3,7.7-1,11.3-2C103.9,316.5,98.7,299.4,97.5,281.2z"/>
	</g>
	<circle class="st2" cx="296.1" cy="276.4" r="220.1"/>
	<circle class="st6" cx="296.1" cy="276.4" r="214.3"/>
	<circle class="st7" cx="296.1" cy="276.4" r="92.7"/>
	<path class="st5" d="M215,273.5c0-34.3,17.5-64.4,44.1-82.1c-32.7,14.3-55.6,47-55.6,85c0,48.6,37.4,88.4,85,92.3
		C246.2,357.6,215,319.2,215,273.5z"/>
	<circle cx="296.1" cy="276.4" r="57.9"/>
	<circle class="st7" cx="330.9" cy="241.6" r="23.2"/>
	<circle class="st7" cx="296.1" cy="276.4" r="31.9"/>
	<path class="st8" d="M209.4,224c0,0,17.8-55.9,86.7-57.9c0,0,66.7,4.1,86.7,57.9c0,0-40-49.7-86.7-47.6
		C296.1,176.4,249.4,170.2,209.4,224z"/>
	<path class="st8" d="M382.8,328.3c0,0-17.8,55.9-86.7,57.9c0,0-66.7-4.1-86.7-57.9c0,0,40,49.7,86.7,47.6
		C296.1,375.9,342.8,382.1,382.8,328.3z"/>
	
		<ellipse transform="matrix(0.6629 -0.7487 0.7487 0.6629 3.2974 363.0852)" class="st4" cx="404.8" cy="177.9" rx="17.4" ry="27.5"/>
	<ellipse transform="matrix(0.6629 -0.7487 0.7487 0.6629 23.8639 385.05)" class="st4" cx="439.5" cy="166" rx="8.7" ry="13.8"/>
	<ellipse transform="matrix(0.6629 -0.7487 0.7487 0.6629 50.0214 370.6019)" class="st4" cx="436.5" cy="129.8" rx="3" ry="4.8"/>
	<path class="st2" d="M291.2,86.4c0,0-65.4-62-71.5-80.7c0,0,6.4,79.2,27.3,85C268,96.5,291.2,86.4,291.2,86.4z"/>
	<path class="st6" d="M274.4,91.5c0,0-50.7-64.3-54.9-84.2c0,0,2,85.2,18.8,90.6C255,103.3,274.4,91.5,274.4,91.5z"/>
	<path class="st2" d="M310.1,69.3c0,0-52.3-28.2-49-51.1c0,0-20.2,31.2,4.4,70.4S310.1,69.3,310.1,69.3z"/>
	<path class="st6" d="M311.7,76.6c0,0-54.3-28.5-50.9-51.5c0,0-20.8,31.1,4.9,70.5C291.3,135,311.7,76.6,311.7,76.6z"/>
	<path class="st2" d="M335.1,62.5c0,0-36.5-18.7-34.2-34.4c0,0-11,49.7,3.2,58.1C318.2,94.7,335.1,62.5,335.1,62.5z"/>
	<path class="st6" d="M333.6,66.9c0,0-35.2-19.3-32.8-35.9c0,0-11.3,52.7,2.3,61.4S333.6,66.9,333.6,66.9z"/>
	<path class="st2" d="M561.2,280.9c0,0,49.7,9,60.7,5.5c0,0-40.4,23.7-49.5,16.1C563.3,294.9,561.2,280.9,561.2,280.9z"/>
	<path class="st2" d="M554.1,254.3c0,0,34.1,21,43.4,12.6c0,0-6.4,20.2-34.5,17.8C534.9,282.2,554.1,254.3,554.1,254.3z"/>
	<path class="st2" d="M548.1,241.6c0,0,25.6,11.5,31.9,5.8c0,0-21.8,21.1-30.9,16.1C540,258.4,548.1,241.6,548.1,241.6z"/>
	<path class="st2" d="M566.2,278.3c0,0,49.3,9.5,60.1,6.2c0,0-39.7,23-48.8,15.4C568.4,292.2,566.2,278.3,566.2,278.3z"/>
	<g>
		<path class="st6" d="M560.4,281.2c0,0,49.3,9.5,60.1,6.2c0,0-39.7,23-48.8,15.4C562.6,295.1,560.4,281.2,560.4,281.2z"/>
		<path class="st6" d="M552.5,256.5c0,0,34.4,21.7,43.6,13.3c0,0-6.1,20.2-34.2,17.3C533.8,284.2,552.5,256.5,552.5,256.5z"/>
		<path class="st6" d="M547.8,242.2c0,0,22.9,13.6,29.8,7.4c0,0-20.4,21.9-29.9,16.9C538.2,261.5,547.8,242.2,547.8,242.2z"/>
	</g>
	<path class="st2" d="M73.2,414.2c0,0-47.8,18.1-57.5,16.8c0,0,34.1,15.4,43.7,6.3C69.1,428.2,73.2,414.2,73.2,414.2z"/>
	<path class="st6" d="M71.6,418.8c0,0-39.7,15.1-47.8,14c0,0,28.3,12.8,36.3,5.2S71.6,418.8,71.6,418.8z"/>
	<path class="st6" d="M73.1,423.1c0,0-20.2-13.5-40.3-4.2c0,0,11.3-15.2,37.9-23C97,388.2,73.1,423.1,73.1,423.1z"/>
	<path class="st6" d="M56.1,402.1c0,0-7.7-1-11.1-8.6c0,0,0.2,7.2,5.6,16.1C56,418.2,56.1,402.1,56.1,402.1z"/>
	<path class="st6" d="M86.1,385.3c0,0-19.5,14.4-24.2,10.4c0,0,13.3,14.7,21.3,9.3C91.2,399.6,86.1,385.3,86.1,385.3z"/>
	<path class="st9" d="M241.4,436.9l-23-16.4c-1.4-1-1.8-3-0.7-4.4l23.4-32.8l28.1,20l-23.4,32.8
		C244.8,437.6,242.8,437.9,241.4,436.9z"/>
	<path class="st5" d="M262.5,398.6l-18.9,26.5c-2.9,4.1-8.7,5.1-12.8,2.1l-10.9-7.8c0.6,1.8,1.7,3.4,3.3,4.5l13.2,9.4
		c4.1,2.9,9.8,2,12.8-2.1l19.9-27.9L262.5,398.6z"/>
	<path class="st9" d="M280.3,441.7l-17.6-6.4c-1.6-0.6-2.5-2.4-1.9-4l9.6-26.7l23.6,8.5l-9.6,26.7
		C283.8,441.4,282,442.3,280.3,441.7z"/>
	<path class="st5" d="M287.8,410.9l-6.8,18.8c-1.7,4.8-7,7.2-11.7,5.5l-5.9-2.1c1,1.9,2.7,3.5,5,4.3l6.3,2.3
		c4.8,1.7,10-0.7,11.7-5.5l7.6-21L287.8,410.9z"/>
	<path class="st8" d="M220.8,357.5c0,0-23.2-26.1-23.2,17.4C197.6,374.8,200.5,345.9,220.8,357.5z"/>
	<path class="st8" d="M209.2,357.5c0,0,107.2,129.5,179.6,13C388.8,370.4,339.6,469.7,209.2,357.5z"/>
	<path class="st2" d="M107.8,261.9c0-63.8,25.8-121.6,67.5-163.5C115.6,136.4,76,203.2,76,279.3c0,118.4,96,214.3,214.3,214.3
		c8.1,0,16.2-0.5,24.1-1.4C198.3,479.7,107.8,381.4,107.8,261.9z"/>
	<path class="st10" d="M414.7,166.3c8.3,7.3,13.1,16.5,13.4,24.3c1.6-7.5-2.8-17.8-11.8-25.7c-8.4-7.4-18.3-10.6-25.6-8.9
		C398.2,155.9,407.1,159.5,414.7,166.3z"/>
	<path class="st10" d="M445.3,159.5c-2.8-2.5-5.9-4-8.8-4.5c2.2,0.9,4.4,2.1,6.4,3.9c6.2,5.5,8.4,13.1,4.9,17
		c-0.4,0.4-0.8,0.8-1.3,1.1c1.3-0.3,2.5-0.9,3.3-1.9C453,171.6,451,164.6,445.3,159.5z"/>
</g>
</svg>
